<svg version="1.1" xmlns="http://www.w3.org/2000/svg" xmlns:xlink="http://www.w3.org/1999/xlink" width="112.05076" height="86.93451" viewBox="0,0,112.05076,86.93451"><g transform="translate(-184.24555,-54.5918)"><g data-paper-data="{&quot;isPaintingLayer&quot;:true}" fill="none" fill-rule="nonzero" stroke="#ff2929" stroke-width="3.5" stroke-linecap="round" stroke-linejoin="miter" stroke-miterlimit="10" stroke-dasharray="" stroke-dashoffset="0" style="mix-blend-mode: normal"><path d="M225.10003,89.20964c0,0 -4.64035,14.56578 -7.72864,21.51444c-3.74665,8.42997 -15.82692,19.65223 -15.82692,19.65223"/><path d="M206.34448,135.37631c0,0 8.88026,-12.42226 12.62692,-20.85223c3.08829,-6.94865 10.92863,-20.31444 10.92863,-20.31444"/><path d="M198.2828,133.44847c0,0 9.92858,-11.72448 15.0403,-19.40381c4.21349,-6.32992 11.23861,-19.9072 11.23861,-19.9072"/><path d="M272.17168,128.7763c0,0 -7.41359,-17.55559 -11.16025,-25.98556c-3.08829,-6.94866 -7.72863,-21.51444 -7.72863,-21.51444" data-paper-data="{&quot;index&quot;:null}"/><path d="M248.4828,86.27631c0,0 7.84035,13.36579 10.92864,20.31444c3.74665,8.42997 7.96025,27.18556 7.96025,27.18556" data-paper-data="{&quot;index&quot;:null}"/><path d="M280.43336,129.84848c0,0 -10.26191,-16.0578 -15.37363,-23.73714c-4.21348,-6.32992 -11.23861,-19.9072 -11.23861,-19.9072" data-paper-data="{&quot;index&quot;:null}"/><path d="M231.23336,87.07631c0,0 0.02633,20.89911 -3.06196,27.84777c-3.74666,8.42997 -15.82692,19.65223 -15.82692,19.65223"/><path d="M217.94447,139.7763c0,0 8.08026,-12.62226 11.82692,-21.05223c3.08829,-6.94865 6.26197,-26.64777 6.26197,-26.64777"/><path d="M230.69504,92.00414c0,0 -2.35845,19.91061 -6.57194,26.24053c-5.11172,7.67933 -20.0403,17.40381 -20.0403,17.40381"/><path d="M263.97169,133.97631c0,0 -7.4136,-17.55559 -11.16025,-25.98556c-3.08829,-6.94866 -7.72863,-21.51444 -7.72863,-21.51444" data-paper-data="{&quot;index&quot;:null}"/><path d="M240.2828,91.47631c0,0 7.84035,13.36579 10.92864,20.31444c3.74666,8.42997 7.96025,27.18556 7.96025,27.18556" data-paper-data="{&quot;index&quot;:null}"/><path d="M272.23336,135.04848c0,0 -10.26191,-16.0578 -15.37363,-23.73714c-4.21349,-6.32992 -11.23861,-19.9072 -11.23861,-19.9072" data-paper-data="{&quot;index&quot;:null}"/><path d="M220.50003,82.00964c0,0 -4.64034,14.56578 -7.72863,21.51444c-3.74666,8.42997 -15.82692,19.65223 -15.82692,19.65223"/><path d="M201.74447,128.17631c0,0 8.88026,-12.42226 12.62692,-20.85223c3.08829,-6.94865 10.92864,-20.31444 10.92864,-20.31444"/><path d="M193.8828,127.04848c0,0 9.92858,-12.32448 15.0403,-20.00381c4.21349,-6.32992 11.23861,-19.9072 11.23861,-19.9072"/><path d="M200.24268,118.96685c0,0 5.99848,-20.76257 11.46222,-28.19556c4.50365,-6.12686 7.48667,-25.69564 7.48667,-25.69564"/><path d="M198.86158,119.67815c0,0 8.12938,-17.41952 13.59312,-24.85251c4.50365,-6.12686 15.02244,-17.50536 15.02244,-17.50536"/><path d="M195.94294,119.44634c0,0 4.26031,-19.48999 10.89688,-25.89763c5.47038,-5.28169 15.23809,-17.04123 15.23809,-17.04123"/><path d="M188.29549,102.77829c0,0 14.35124,-15.98759 22.35359,-20.57717c6.59617,-3.7831 14.27702,-19.1294 14.27702,-19.1294"/><path d="M187.21563,103.44804c0,0 14.47779,-12.64595 22.48014,-17.23553c6.59617,-3.7831 20.81714,-9.93772 20.81714,-9.93772"/><path d="M185.99555,104.56385c0,0 10.76502,-18.89666 19.42554,-22.07427c7.13869,-2.61924 16.16007,-15.75935 16.16007,-15.75935"/><path d="M282.89232,133.24847c0,0 -10.26191,-16.05781 -15.37363,-23.73714c-4.21348,-6.32992 -11.23861,-19.9072 -11.23861,-19.9072" data-paper-data="{&quot;index&quot;:null}"/><path d="M279.23065,124.97631c0,0 -7.41359,-17.55559 -11.16025,-25.98556c-3.08829,-6.94866 -7.72863,-21.51444 -7.72863,-21.51444" data-paper-data="{&quot;index&quot;:null}"/><path d="M287.49232,126.04848c0,0 -10.26191,-16.05781 -15.37363,-23.73714c-4.21348,-6.32992 -11.23861,-19.9072 -11.23861,-19.9072" data-paper-data="{&quot;index&quot;:null}"/><path d="M257.18356,66.87565c0,0 7.64969,13.23545 12.15334,19.36231c5.46375,7.43299 14.66222,34.19556 14.66222,34.19556" data-paper-data="{&quot;index&quot;:null}"/><path d="M253.36465,72.78696c0,0 10.51879,11.3785 15.02244,17.50536c5.46375,7.43299 13.59312,24.85251 13.59312,24.85251" data-paper-data="{&quot;index&quot;:null}"/><path d="M258.56389,71.57415c0,0 9.7677,11.75953 15.23809,17.04122c6.63656,6.40764 13.09688,31.49763 13.09688,31.49763" data-paper-data="{&quot;index&quot;:null}"/><path d="M294.54631,92.04497c0,0 -16.35125,-9.7876 -24.35359,-14.37718c-6.59617,-3.7831 -18.94369,-12.79607 -18.94369,-12.79607" data-paper-data="{&quot;index&quot;:null}"/><path d="M250.32888,71.74146c0,0 14.22097,6.15462 20.81714,9.93772c8.00235,4.58958 18.68015,27.63553 18.68015,27.63553" data-paper-data="{&quot;index&quot;:null}"/><path d="M254.59397,68.53023c0,0 13.68805,6.80678 20.82674,9.42602c8.66052,3.17761 15.42554,27.47427 15.42554,27.47427" data-paper-data="{&quot;index&quot;:null}"/><path d="M229.93877,63.4491c0,0 -7.82212,15.14951 -14.47741,18.82762c-8.07407,4.4622 -24.57834,13.98947 -24.57834,13.98947"/><path d="M238.74444,58.87857c0,0 -14.26595,5.49343 -21.61877,7.43182c-8.9203,2.35161 -22.58703,13.8856 -22.58703,13.8856"/><path d="M193.64139,87.06874c0,0 17.26737,-8.44775 26.18767,-10.79936c7.35282,-1.93839 18.01812,-10.51805 18.01812,-10.51805"/><path d="M191.93321,85.82195c0,0 12.48041,-20.57493 21.66922,-21.39202c7.57415,-0.67352 22.56104,-3.68813 22.56104,-3.68813"/><path d="M247.72323,63.72804c0,0 11.39738,10.18797 17.58783,14.60381c7.51014,5.3572 23.0152,27.51128 23.0152,27.51128" data-paper-data="{&quot;index&quot;:null}"/><path d="M286.33442,78.66007c0,0 -17.61748,-7.26532 -26.20991,-10.62269c-7.08256,-2.76741 -20.62581,-9.85793 -20.62581,-9.85793" data-paper-data="{&quot;index&quot;:null}"/><path d="M240.20324,65.30974c0,0 14.974,3.98681 22.05656,6.75422c8.59243,3.35737 27.77916,23.52639 27.77916,23.52639" data-paper-data="{&quot;index&quot;:null}"/><path d="M243.34729,60.70383c0,0 2.1659,-2.36891 5.69404,-1.29107c4.87143,1.48822 11.57732,7.44686 15.89644,8.33779c7.57549,1.56264 27.02363,24.26096 27.02363,24.26096" data-paper-data="{&quot;index&quot;:null}"/><path d="M197.33321,81.42195c0,0 12.48041,-20.57493 21.66922,-21.39202c7.57414,-0.67352 22.56104,-3.68813 22.56104,-3.68813"/><path d="M234.66654,56.7418c0,0 14.9869,3.01462 22.56104,3.68813c9.18881,0.81709 26.33589,15.05868 26.33589,15.05868" data-paper-data="{&quot;index&quot;:null}"/></g></g></svg>