<svg version="1.1" xmlns="http://www.w3.org/2000/svg" xmlns:xlink="http://www.w3.org/1999/xlink" width="25.51335" height="8.64905" viewBox="0,0,25.51335,8.64905"><g transform="translate(-226.74577,-113.74903)"><g data-paper-data="{&quot;isPaintingLayer&quot;:true}" fill-rule="nonzero" stroke="#000000" stroke-linejoin="miter" stroke-miterlimit="10" stroke-dasharray="" stroke-dashoffset="0" style="mix-blend-mode: normal"><path d="M246.91153,118.03722c0.01173,2.3817 -2.18932,4.32334 -4.91619,4.33677c-2.72687,0.01343 -4.94695,-1.90642 -4.95869,-4.28812c-0.01173,-2.3817 2.18932,-4.32334 4.91619,-4.33677c2.72687,-0.01343 4.94695,1.90642 4.95869,4.28812z" fill="#ff0000" stroke-width="0" stroke-linecap="butt"/><path d="M242.03659,118.06124c0.01173,2.3817 -2.18932,4.32334 -4.91619,4.33677c-2.72687,0.01343 -4.94695,-1.90642 -4.95869,-4.28812c-0.01173,-2.3817 2.18932,-4.32334 4.91619,-4.33677c2.72687,-0.01343 4.94695,1.90642 4.95869,4.28812z" fill="#ff0000" stroke-width="0" stroke-linecap="butt"/><path d="M251.25912,118.16799l-23.51335,-0.46582" data-paper-data="{&quot;index&quot;:null}" fill="none" stroke-width="2" stroke-linecap="round"/></g></g></svg>