<svg version="1.1" xmlns="http://www.w3.org/2000/svg" xmlns:xlink="http://www.w3.org/1999/xlink" width="94.2236" height="76.16151" viewBox="0,0,94.2236,76.16151"><g transform="translate(-192.87186,-55.97011)"><g data-paper-data="{&quot;isPaintingLayer&quot;:true}" fill="#560e0e" fill-rule="nonzero" stroke="#560e0e" stroke-width="3.5" stroke-linecap="round" stroke-linejoin="miter" stroke-miterlimit="10" stroke-dasharray="" stroke-dashoffset="0" style="mix-blend-mode: normal"><path d="M214.31154,77.05463c0,0 -1.1328,15.39277 -4.44351,22.34143c-4.01649,8.42997 -11.964,25.98556 -11.964,25.98556"/><path d="M203.04972,130.38162c0,0 4.51705,-18.75559 8.53354,-27.18556c3.31071,-6.94865 7.87398,-21.14143 7.87398,-21.14143"/><path d="M213.94887,82.18246c0,0 -3.68933,14.40427 -8.20628,20.73419c-5.47987,7.67933 -11.12073,26.33714 -11.12073,26.33714"/><path d="M196.43701,114.83883c0,0 2.58875,-21.58956 8.44599,-29.02255c4.828,-6.12686 13.02862,-19.36231 13.02862,-19.36231"/><path d="M194.95644,115.55013c0,0 4.87312,-18.24651 10.73036,-25.6795c4.828,-6.12686 16.10435,-17.50536 16.10435,-17.50536"/><path d="M198.71922,115.59398c0,0 -3.13391,-21.6953 3.98062,-28.10294c5.86435,-5.28169 16.33553,-17.04123 16.33553,-17.04123"/><path d="M204.90667,108.5742c0,0 -9.73421,-26.73851 -1.15554,-31.32809c7.07122,-3.7831 20.308,-12.79607 20.308,-12.79607"/><path d="M203.74903,109.24395c0,0 -9.59855,-23.39687 -1.01988,-27.98645c7.07122,-3.7831 22.31637,-9.93772 22.31637,-9.93772"/><path d="M220.47329,68.10855c0,0 6.60344,16.73071 -1.04937,19.34995c-9.28424,3.17761 -16.98282,22.90126 -16.98282,22.90126"/><path d="M281.77169,123.74149c0,0 -9.86093,-26.76257 -15.71818,-34.19556c-4.828,-6.12686 -7.41377,-21.29196 -7.41377,-21.29196" data-paper-data="{&quot;index&quot;:null}"/><path d="M279.60739,118.4528c0,0 -8.71484,-17.41952 -14.57209,-24.85251c-4.828,-6.12686 -10.4895,-19.43501 -10.4895,-19.43501" data-paper-data="{&quot;index&quot;:null}"/><path d="M260.11948,72.95246c0,0 7.16635,4.55982 10.39823,10.22976c1.56507,2.74572 -1.59088,7.01789 0.32245,8.74111c4.10535,3.69745 1.53184,15.26961 4.217,22.99816c1.96819,5.66494 4.86115,10.15346 4.86115,10.15346" data-paper-data="{&quot;index&quot;:null}"/><path d="M252.27781,66.25004c0,0 7.62194,10.94262 14.69316,14.72572c8.57866,4.58958 13.4621,31.19273 13.4621,31.19273" data-paper-data="{&quot;index&quot;:null}"/><path d="M251.29139,73.11978c0,0 9.63031,8.08427 16.70153,11.86737c8.57867,4.58958 15.06352,29.28952 15.06352,29.28952" data-paper-data="{&quot;index&quot;:null}"/><path d="M255.86365,69.90855c0,0 9.05901,8.73643 16.71183,11.35567c9.28424,3.17761 11.57451,29.12826 11.57451,29.12826" data-paper-data="{&quot;index&quot;:null}"/><path d="M207.68055,102.0621c0,0 -7.42612,-20.27819 1.22943,-24.74039c7.1346,-3.67811 20.52282,-12.49429 20.52282,-12.49429"/><path d="M207.75771,85.16491c0,0 -1.62353,-15.12459 7.9392,-17.4762c7.88236,-1.93839 23.17574,-7.43182 23.17574,-7.43182"/><path d="M206.79584,92.03765c0,0 -2.76634,-18.37168 6.7964,-20.72329c7.88236,-1.93839 24.31853,-4.18472 24.31853,-4.18472"/><path d="M203.862,92.16918c0,0 -1.79263,-25.54385 8.05796,-26.36094c8.11963,-0.67352 24.18587,-3.68813 24.18587,-3.68813"/><path d="M248.49808,65.10635c0,0 9.8507,4.23652 14.32479,9.43811c1.66223,1.93252 -2.88281,5.89917 -1.08514,7.09535c2.9878,1.9881 1.36703,8.21916 5.428,12.84309c6.88183,7.83582 14.28278,16.32218 14.28278,16.32218" data-paper-data="{&quot;index&quot;:null}"/><path d="M239.68124,59.55777c0,0 14.51862,7.09052 22.11126,9.85793c9.21125,3.35737 17.52073,14.20633 17.52073,14.20633" data-paper-data="{&quot;index&quot;:null}"/><path d="M240.43652,66.68806c0,0 16.05242,3.98681 23.64506,6.75422c9.21125,3.35737 19.20299,27.11003 19.20299,27.11003" data-paper-data="{&quot;index&quot;:null}"/><path d="M243.807,62.08215c0,0 2.32188,-2.36891 6.10412,-1.29107c5.22227,1.48822 12.41111,7.44686 17.04129,8.33779c8.12107,1.56264 18.39305,27.8446 18.39305,27.8446" data-paper-data="{&quot;index&quot;:null}"/><path d="M210.75355,86.39086c0,0 5.15139,-6.61515 6.88933,-13.95882c0.97418,-4.1164 -0.16434,-8.52499 3.37394,-8.81848c8.11962,-0.67352 20.87789,-5.89345 20.87789,-5.89345"/><path d="M234.50106,58.12012c0,0 16.06624,3.01462 24.18587,3.68813c5.35249,0.44398 8.81323,12.01881 14.88582,15.95148c1.69499,1.09769 5.76123,1.99846 7.12266,4.18485c2.73755,4.39637 2.08913,10.63523 2.08913,10.63523" data-paper-data="{&quot;index&quot;:null}"/><path d="M236.61743,68.8718c0,0 10.13819,-4.45419 15.63857,-4.91975c6.67294,-0.5648 16.88569,7.40147 16.88569,7.40147"/><path d="M238.09113,64.38153c0,0 4.50203,0.88875 9.43442,0.09532c2.18053,-0.35076 4.88875,-2.58282 6.57494,-2.72553c6.67294,-0.56479 12.06226,7.0416 12.06226,7.0416"/><path d="M239.98993,67.37986c0,0 10.35476,-2.71685 15.86069,-2.31241c1.76158,0.1294 4.97847,4.88378 6.73091,5.31983c4.89255,1.21738 7.73538,-1.25649 7.73538,-1.25649"/><path d="M267.69963,66.85224c0,0 -13.18273,3.33133 -19.83066,2.55108c-5.47975,-0.64314 -16.41877,-3.11265 -16.41877,-3.11265"/><path d="M228.90918,67.32011c0,0 8.43401,-9.16593 12.62088,-5.80607c5.07943,4.07612 20.13154,1.81694 20.13154,1.81694"/><path d="M266.48417,72.02815c0,0 -14.54956,10.28298 -21.19749,8.87425c-5.47975,-1.16118 -16.58177,-1.44823 -16.58177,-1.44823"/><path d="M262.79612,74.4065c0,0 -13.12741,11.38178 -19.53981,8.10916c-5.28561,-2.69755 -16.20064,-6.12674 -16.20064,-6.12674"/><path d="M254.20201,65.39014c0,0 -13.74932,25.63163 -19.49159,19.81665c-4.73324,-4.79314 -14.81861,-12.61491 -14.81861,-12.61491"/><path d="M255.00888,66.14479c0,0 -7.26368,23.50549 -13.00595,17.69054c-4.73324,-4.79314 -18.07881,-16.31942 -18.07881,-16.31942"/><path d="M249.15572,66.5056c0,0 -10.41287,19.48239 -16.09971,13.5149c-4.68755,-4.91888 -14.69807,-13.00879 -14.69807,-13.00879"/><path d="M238.41156,76.49593c0,0 -9.05849,10.62911 -13.70585,2.50007c-3.83072,-6.7006 -8.50282,-12.60422 -8.50282,-12.60422"/><path d="M243.08869,73.35977c0,0 -10.74117,13.7026 -15.38852,5.57358c-3.83072,-6.7006 -6.82016,-17.05603 -6.82016,-17.05603"/><path d="M242.90207,75.92755c0,0 -5.95398,12.07971 -10.40316,13.29587c-1.31412,0.35921 -2.49696,-0.2293 -3.35633,-2.35672c-3.10665,-7.69065 -11.39605,-22.96259 -11.39605,-22.96259"/><path d="M243.98961,74.70954c0,0 -10.90081,-1.19857 -16.93474,3.52507c-5.08404,3.98002 -5.27362,14.48329 -6.99707,10.21679c-3.10665,-7.69063 -0.12108,-25.21397 -0.12108,-25.21397"/></g></g></svg>