<svg version="1.1" xmlns="http://www.w3.org/2000/svg" xmlns:xlink="http://www.w3.org/1999/xlink" width="95.36386" height="76.1615" viewBox="0,0,95.36386,76.1615"><g transform="translate(-193.10992,-54.5918)"><g data-paper-data="{&quot;isPaintingLayer&quot;:true}" fill="none" fill-rule="nonzero" stroke-width="3.5" stroke-linecap="round" stroke-linejoin="miter" stroke-miterlimit="10" stroke-dasharray="" stroke-dashoffset="0" style="mix-blend-mode: normal"><path d="M215.83336,75.67631c0,0 -1.0567,15.39277 -4.14499,22.34143c-3.74666,8.42997 -11.16025,25.98556 -11.16025,25.98556" stroke="#ff2929"/><path d="M205.32812,129.0033c0,0 4.21359,-18.75559 7.96025,-27.18556c3.08829,-6.94865 7.345,-21.14143 7.345,-21.14143" stroke="#ff2929"/><path d="M197.46645,127.87547c0,0 5.26191,-18.65781 10.37363,-26.33714c4.21349,-6.32992 7.65497,-20.73419 7.65497,-20.73419" stroke="#ff2929"/><path d="M199.15966,113.46051c0,0 2.41484,-21.58956 7.87858,-29.02255c4.50365,-6.12686 12.15334,-19.36231 12.15334,-19.36231" stroke="#ff2929"/><path d="M197.77856,114.17181c0,0 4.54574,-18.24651 10.00948,-25.6795c4.50365,-6.12686 15.02244,-17.50536 15.02244,-17.50536" stroke="#ff2929"/><path d="M194.85992,113.94c0,0 0.67667,-20.31698 7.31324,-26.72462c5.47038,-5.28169 15.23809,-17.04123 15.23809,-17.04123" stroke="#ff2929"/><path d="M207.06032,107.19588c0,0 -9.08026,-26.73851 -1.07791,-31.32809c6.59617,-3.7831 18.94369,-12.79607 18.94369,-12.79607" stroke="#ff2929"/><path d="M205.98046,107.86563c0,0 -8.95371,-23.39687 -0.95136,-27.98645c6.59617,-3.7831 20.81714,-9.93772 20.81714,-9.93772" stroke="#ff2929"/><path d="M204.76038,108.98144c0,0 7.18138,-19.72365 15.8419,-22.90126c7.13869,-2.61924 0.97888,-19.34995 0.97888,-19.34995" stroke="#ff2929"/><path d="M257.18356,66.87565c0,0 2.41206,15.1651 6.91571,21.29196c5.46375,7.43299 14.66222,34.19556 14.66222,34.19556" data-paper-data="{&quot;index&quot;:null}" stroke="#ff2929"/><path d="M253.36465,72.78696c0,0 5.28116,13.30815 9.78481,19.43501c5.46375,7.43299 13.59312,24.85251 13.59312,24.85251" data-paper-data="{&quot;index&quot;:null}" stroke="#ff2929"/><path d="M258.56389,71.57415c0,0 4.53007,13.68918 10.00046,18.97087c6.63656,6.40764 13.09688,31.49763 13.09688,31.49763" data-paper-data="{&quot;index&quot;:null}" stroke="#ff2929"/><path d="M282.1414,109.13618c0,0 -9.18397,-24.94916 -17.18631,-29.53874c-6.59617,-3.7831 -13.70606,-14.72572 -13.70606,-14.72572" data-paper-data="{&quot;index&quot;:null}" stroke="#ff2929"/><path d="M250.32888,71.74146c0,0 8.98334,8.08427 15.57951,11.86737c8.00235,4.58958 18.68015,27.63553 18.68015,27.63553" data-paper-data="{&quot;index&quot;:null}" stroke="#ff2929"/><path d="M254.59397,68.53023c0,0 8.45042,8.73643 15.58911,11.35567c8.66052,3.17761 15.42554,27.47427 15.42554,27.47427" data-paper-data="{&quot;index&quot;:null}" stroke="#ff2929"/><path d="M229.93877,63.4491c0,0 -12.48879,8.81618 -19.14408,12.49429c-8.07407,4.4622 -1.14684,24.74039 -1.14684,24.74039" stroke="#ff2929"/><path d="M238.74444,58.87857c0,0 -14.26595,5.49343 -21.61877,7.43182c-8.9203,2.35161 -7.40584,17.4762 -7.40584,17.4762" stroke="#ff2929"/><path d="M208.82258,90.65933c0,0 -2.58049,-18.37168 6.33981,-20.72329c7.35282,-1.93839 22.68479,-4.18472 22.68479,-4.18472" stroke="#ff2929"/><path d="M207.1144,89.41254c0,0 -2.70078,-24.16553 6.48803,-24.98262c7.57415,-0.67352 22.56104,-3.68813 22.56104,-3.68813" stroke="#ff2929"/><path d="M247.72323,63.72804c0,0 6.15975,12.11762 12.3502,16.53346c7.51014,5.3572 23.0152,27.51128 23.0152,27.51128" data-paper-data="{&quot;index&quot;:null}" stroke="#ff2929"/><path d="M281.0968,80.58972c0,0 -12.37985,-9.19497 -20.97228,-12.55234c-7.08256,-2.76741 -20.62581,-9.85793 -20.62581,-9.85793" data-paper-data="{&quot;index&quot;:null}" stroke="#ff2929"/><path d="M240.20324,65.30974c0,0 14.974,3.98681 22.05656,6.75422c8.59243,3.35737 22.54153,25.45604 22.54153,25.45604" data-paper-data="{&quot;index&quot;:null}" stroke="#ff2929"/><path d="M243.34729,60.70383c0,0 2.1659,-2.36891 5.69404,-1.29107c4.87143,1.48822 11.57732,7.44686 15.89644,8.33779c7.57549,1.56264 21.786,26.19061 21.786,26.19061" data-paper-data="{&quot;index&quot;:null}" stroke="#ff2929"/><path d="M212.5144,85.01254c0,0 -2.70078,-24.16553 6.48803,-24.98262c7.57414,-0.67352 22.56104,-3.68813 22.56104,-3.68813" stroke="#ff2929"/><path d="M234.66654,56.7418c0,0 14.9869,3.01462 22.56104,3.68813c9.18881,0.81709 26.33589,15.05868 26.33589,15.05868" data-paper-data="{&quot;index&quot;:null}" stroke="#ff2929"/><path d="M236.64072,67.49348c0,0 9.4571,-4.45419 14.58795,-4.91975c6.22465,-0.5648 15.75129,7.40147 15.75129,7.40147" stroke="#ff2929"/><path d="M263.94402,61.62564c0,0 -4.77011,-1.81743 -10.99476,-1.25264c-5.13084,0.46555 -14.93384,2.63021 -14.93384,2.63021" stroke="#ff2929"/><path d="M268.07624,67.75247c0,0 -7.26351,-3.57268 -13.49443,-4.06334c-5.13603,-0.40444 -14.79515,2.31241 -14.79515,2.31241" stroke="#ff2929"/><path d="M264.501,64.8914c0,0 -13.57211,5.69542 -19.77343,4.91517c-5.11162,-0.64314 -15.46779,-0.80213 -15.46779,-0.80213" stroke="#ff2929"/><path d="M265.37765,65.47392c0,0 -12.2971,3.33133 -18.49842,2.55108c-5.11162,-0.64314 -15.31575,-3.11265 -15.31575,-3.11265" stroke="#ff2929"/><path d="M266.20361,67.27747c0,0 -12.2455,6.30401 -18.22711,4.49141c-4.93052,-1.49409 -15.11227,-3.39341 -15.11227,-3.39341" stroke="#ff2929"/><path d="M258.18687,62.28359c0,0 -12.82563,14.19655 -18.18213,10.97582c-4.41526,-2.65477 -13.82309,-6.987 -13.82309,-6.987" stroke="#ff2929"/><path d="M258.93953,62.70157c0,0 -10.89003,13.01895 -16.24653,9.79823c-4.41526,-2.65477 -12.74993,-9.03881 -12.74993,-9.03881" stroke="#ff2929"/><path d="M260.00241,63.05532c0,0 -14.0409,2.25918 -18.77909,-1.81694c-3.90559,-3.35986 -11.773,5.80607 -11.773,5.80607" stroke="#ff2929"/><path d="M224.75083,63.18173c0,0 9.338,4.48075 13.71064,7.20516c5.3048,3.3052 15.01812,-7.48548 15.01812,-7.48548" stroke="#ff2929"/><path d="M219.14051,59.47937c0,0 7.95827,6.62883 11.53164,10.34008c4.33514,4.50242 12.78508,-1.38471 12.78508,-1.38471" stroke="#ff2929"/><path d="M247.82015,66.69772c0,0 -10.01957,7.58944 -14.35471,3.08703c-3.57337,-3.71125 -9.96201,-12.04239 -9.96201,-12.04239" stroke="#ff2929"/><path d="M247.64607,68.11993c0,0 -7.61932,8.46988 -11.13504,3.3022c-2.89794,-4.25961 -15.41628,-11.03038 -15.41628,-11.03038" stroke="#ff2929"/><path d="M243.26049,66.37654c0,0 -13.40828,9.57254 -16.924,4.40486c-2.89794,-4.2596 -9.62732,-12.13304 -9.62732,-12.13304" stroke="#ff2929"/></g></g></svg>