<svg version="1.1" xmlns="http://www.w3.org/2000/svg" xmlns:xlink="http://www.w3.org/1999/xlink" width="106.43158" height="187.62489" viewBox="0,0,106.43158,187.62489"><g transform="translate(-188.83518,-54.25847)"><g data-paper-data="{&quot;isPaintingLayer&quot;:true}" fill="#ffffff" fill-rule="nonzero" stroke="#ffffff" stroke-width="3.5" stroke-linecap="round" stroke-linejoin="miter" stroke-miterlimit="10" stroke-dasharray="" stroke-dashoffset="0" style="mix-blend-mode: normal"><path d="M221.91571,111.99695c0,0 -5.05358,23.84468 -8.41689,35.21987c-4.0803,13.80015 -17.23634,32.17137 -17.23634,32.17137"/><path d="M227.14317,120.18212c0,0 -8.53854,21.88025 -11.90185,33.25543c-4.08031,13.80015 -13.75137,34.13581 -13.75137,34.13581"/><path d="M221.32946,120.06396c0,0 -7.65072,22.22647 -12.23943,32.58877c-5.56693,12.57133 -5.713,49.43137 -5.713,49.43137"/><path d="M273.1792,176.76893c0,0 -8.07379,-28.7391 -12.15409,-42.53925c-3.36331,-11.37519 -8.41688,-35.21987 -8.41688,-35.21987" data-paper-data="{&quot;index&quot;:null}"/><path d="M247.38077,107.19499c0,0 8.53855,21.88025 11.90186,33.25543c4.0803,13.80015 8.66913,44.50369 8.66913,44.50369" data-paper-data="{&quot;index&quot;:null}"/><path d="M282.17659,178.52412c0,0 -11.17575,-26.28717 -16.74268,-38.85851c-4.5887,-10.3623 -12.23943,-32.58877 -12.23943,-32.58877" data-paper-data="{&quot;index&quot;:null}"/><path d="M228.59523,108.50462c0,0 5.69534,32.54589 -3.33463,45.58775c-4.08031,13.80015 -17.23634,32.17137 -17.23634,32.17137"/><path d="M233.82267,116.68976c0,0 -3.4563,32.24813 -6.81961,43.62331c-4.08031,13.80015 -15.88013,29.12989 -15.88013,29.12989"/><path d="M228.00898,116.57164c0,0 -2.56847,32.59435 -7.15718,42.95664c-5.56693,12.57133 -21.82493,28.49063 -21.82493,28.49063"/><path d="M264.24897,185.28152c0,0 -8.0738,-28.7391 -12.15409,-42.53925c-3.36331,-11.37519 -8.41688,-35.21987 -8.41688,-35.21987" data-paper-data="{&quot;index&quot;:null}"/><path d="M238.45054,115.70757c0,0 8.53855,21.88025 11.90186,33.25543c4.08031,13.80015 8.66913,44.50369 8.66913,44.50369" data-paper-data="{&quot;index&quot;:null}"/><path d="M273.24636,187.0367c0,0 -11.17575,-26.28717 -16.74268,-38.85851c-4.58871,-10.3623 -12.23943,-32.58877 -12.23943,-32.58877" data-paper-data="{&quot;index&quot;:null}"/><path d="M216.90608,100.21031c0,0 -5.05357,23.84468 -8.41688,35.21987c-4.08031,13.80015 -6.56967,49.83804 -6.56967,49.83804"/><path d="M196.81363,182.78672c0,0 9.33773,-27.33566 13.41804,-41.13581c3.36331,-11.37518 11.90186,-33.25543 11.90186,-33.25543"/><path d="M216.53763,108.60474c0,0 -7.65072,22.22647 -12.23943,32.58877c-5.56693,12.57133 -5.713,50.41359 -5.713,50.41359"/><path d="M215.4811,72.48878c0,0 -3.24866,32.03476 -8.15337,42.06464c-5.9503,12.16806 -12.48295,46.1571 -12.48295,46.1571"/><path d="M204.00734,179.54161c0,0 -1.81335,-46.18302 4.13695,-58.35108c4.90471,-10.02988 16.36022,-28.65687 16.36022,-28.65687"/><path d="M200.82879,179.16213c0,0 -6.02697,-49.57245 1.2006,-60.06198c5.95753,-8.64631 16.59507,-27.89708 16.59507,-27.89708"/><path d="M230.7263,64.54161c0,0 -8.36485,25.12242 -15.54842,31.31548c-8.71498,7.5133 -13.67755,51.3522 -13.67755,51.3522"/><path d="M197.99096,157.63904c0,0 0.75851,-21.42715 4.30389,-29.00182c3.32248,-7.09845 -1.37125,-17.91194 2.84481,-21.54667c7.18357,-6.19306 22.67095,-16.26839 22.67095,-16.26839"/><path d="M203.99556,166.79899c0,0 -12.943,-60.60115 -3.51125,-65.803c7.7744,-4.28779 17.59916,-25.79859 17.59916,-25.79859"/><path d="M284.85452,184.09002c0,0 -11.17575,-26.28718 -16.74268,-38.85851c-4.5887,-10.3623 -12.23943,-32.58877 -12.23943,-32.58877" data-paper-data="{&quot;index&quot;:null}"/><path d="M280.86677,170.54821c0,0 -8.07379,-28.7391 -12.15409,-42.53925c-3.36331,-11.37519 -8.41688,-35.21987 -8.41688,-35.21987" data-paper-data="{&quot;index&quot;:null}"/><path d="M289.86417,172.30339c0,0 -11.17575,-26.28718 -16.74268,-38.85851c-4.5887,-10.3623 -12.23943,-32.58877 -12.23943,-32.58877" data-paper-data="{&quot;index&quot;:null}"/><path d="M256.85634,75.43545c0,0 8.33091,21.66688 13.23562,31.69676c5.95031,12.16806 15.96792,55.9793 15.96792,55.9793" data-paper-data="{&quot;index&quot;:null}"/><path d="M252.69736,85.11246c0,0 11.45551,18.62699 16.36022,28.65687c5.95031,12.16806 14.80362,40.68441 14.80362,40.68441" data-paper-data="{&quot;index&quot;:null}"/><path d="M258.3596,83.12705c0,0 10.63753,19.25075 16.59507,27.89706c7.22756,10.48953 14.26318,51.5627 14.26318,51.5627" data-paper-data="{&quot;index&quot;:null}"/><path d="M286.87966,130.63848c0,0 -7.14069,-21.35597 -15.85566,-28.86926c-7.18357,-6.19306 -20.63066,-29.61427 -20.63066,-29.61427" data-paper-data="{&quot;index&quot;:null}"/><path d="M249.39125,83.40094c0,0 15.48738,10.07532 22.67095,16.26839c8.71498,7.5133 20.34366,45.24031 20.34366,45.24031" data-paper-data="{&quot;index&quot;:null}"/><path d="M254.03614,78.14405c0,0 14.907,19.8096 22.6814,24.09739c9.43176,5.20186 16.79922,44.97632 16.79922,44.97632" data-paper-data="{&quot;index&quot;:null}"/><path d="M231.51869,79.82607c0,0 -8.5187,24.80027 -15.76665,30.82146c-5.46868,4.54305 -8.4885,12.95997 -14.52709,18.17088c-3.67085,3.16771 1.42666,17.06369 1.42666,17.06369"/><path d="M200.9661,117.90797c0,0 2.55045,-39.54821 12.26512,-43.39787c8.0076,-3.17321 22.81793,-14.34886 22.81793,-14.34886"/><path d="M237.13136,73.92823c0,0 -12.9484,13.71187 -20.956,16.88508c-9.71467,3.84967 -16.18641,38.34559 -16.18641,38.34559"/><path d="M195.12865,131.45119c0,0 4.59182,-58.68186 14.59891,-60.01947c8.24864,-1.10258 23.84411,-8.22031 23.84411,-8.22031"/><path d="M246.55356,70.2827c0,0 12.41234,16.67806 19.15406,23.90694c8.17893,8.76992 25.06475,45.03691 25.06475,45.03691" data-paper-data="{&quot;index&quot;:null}"/><path d="M288.60315,103.39361c0,0 -19.18635,-11.89358 -28.54396,-17.38971c-7.71328,-4.53034 -23.18862,-26.98715 -23.18862,-26.98715" data-paper-data="{&quot;index&quot;:null}"/><path d="M238.3639,72.872c0,0 16.30747,15.19321 24.02074,19.72356c9.3576,5.49613 30.25295,38.5135 30.25295,38.5135" data-paper-data="{&quot;index&quot;:null}"/><path d="M241.0619,63.14925c0,0 2.35878,-3.87799 6.20111,-2.11353c5.30524,2.43627 13.33434,23.04015 18.03809,24.49863c8.2501,2.5581 18.76347,45.04935 18.76347,45.04935" data-paper-data="{&quot;index&quot;:null}"/><path d="M204.00954,119.91491c0,0 0.53245,-56.53125 10.53954,-57.86885c8.24863,-1.10258 24.57015,-6.03759 24.57015,-6.03759"/><path d="M231.60811,56.66328c0,0 16.32151,13.60171 24.57015,14.70426c10.00709,1.3376 29.40719,26.83429 29.40719,26.83429" data-paper-data="{&quot;index&quot;:null}"/><path d="M224.58238,158.66362c0,0 -5.05358,23.84468 -8.41689,35.21987c-4.0803,13.80015 -17.23634,32.17137 -17.23634,32.17137"/><path d="M229.80983,166.84879c0,0 -8.53854,21.88025 -11.90185,33.25543c-4.08031,13.80015 -13.75137,34.13581 -13.75137,34.13581"/><path d="M223.99611,166.73063c0,0 -7.65072,22.22647 -12.23943,32.58877c-5.56693,12.57133 -16.37967,31.7647 -16.37967,31.7647"/><path d="M275.84585,223.4356c0,0 -8.07379,-28.7391 -12.15409,-42.53925c-3.36331,-11.37519 -8.41688,-35.21987 -8.41688,-35.21987" data-paper-data="{&quot;index&quot;:null}"/><path d="M250.04742,153.86166c0,0 8.53855,21.88025 11.90186,33.25543c4.0803,13.80015 8.66913,44.50369 8.66913,44.50369" data-paper-data="{&quot;index&quot;:null}"/><path d="M284.84324,225.19079c0,0 -11.17575,-26.28717 -16.74268,-38.85851c-4.5887,-10.3623 -12.23943,-32.58877 -12.23943,-32.58877" data-paper-data="{&quot;index&quot;:null}"/><path d="M231.26188,155.17129c0,0 0.02867,34.21256 -3.33463,45.58775c-4.08031,13.80015 -17.23634,32.17137 -17.23634,32.17137"/><path d="M236.48934,163.35643c0,0 -3.4563,32.24813 -6.81961,43.62331c-4.08031,13.80015 -15.88013,29.12989 -15.88013,29.12989"/><path d="M230.67564,163.23831c0,0 -2.56847,32.59435 -7.15718,42.95664c-5.56693,12.57133 -21.82493,28.49063 -21.82493,28.49063"/><path d="M266.91564,231.94819c0,0 -8.0738,-28.7391 -12.15409,-42.53925c-3.36331,-11.37519 -8.41688,-35.21987 -8.41688,-35.21987" data-paper-data="{&quot;index&quot;:null}"/><path d="M241.11721,162.37424c0,0 8.53855,21.88025 11.90186,33.25543c4.08031,13.80015 8.66913,44.50369 8.66913,44.50369" data-paper-data="{&quot;index&quot;:null}"/><path d="M275.91303,233.70337c0,0 -11.17575,-26.28717 -16.74268,-38.85851c-4.58871,-10.3623 -12.23943,-32.58877 -12.23943,-32.58877" data-paper-data="{&quot;index&quot;:null}"/><path d="M219.57274,146.87698c0,0 -5.05357,23.84468 -8.41688,35.21987c-4.08031,13.80015 -17.23634,32.17137 -17.23634,32.17137"/><path d="M199.48029,229.45339c0,0 9.33773,-27.33566 13.41804,-41.13581c3.36331,-11.37518 11.90186,-33.25543 11.90186,-33.25543"/><path d="M219.20429,155.27141c0,0 -7.65072,22.22647 -12.23943,32.58877c-5.56693,12.57133 -16.37967,32.74692 -16.37967,32.74692"/><path d="M196.00734,208.54161c0,0 8.85332,-28.51635 14.80362,-40.68441c4.90471,-10.02988 16.36022,-28.65687 16.36022,-28.65687"/><path d="M287.52119,230.75669c0,0 -11.17575,-26.28718 -16.74268,-38.85851c-4.5887,-10.3623 -12.23943,-32.58877 -12.23943,-32.58877" data-paper-data="{&quot;index&quot;:null}"/><path d="M283.53344,217.21488c0,0 -8.07379,-28.7391 -12.15409,-42.53925c-3.36331,-11.37519 -8.41688,-35.21987 -8.41688,-35.21987" data-paper-data="{&quot;index&quot;:null}"/><path d="M292.53083,218.97006c0,0 -11.17575,-26.28718 -16.74268,-38.85851c-4.5887,-10.3623 -12.23943,-32.58877 -12.23943,-32.58877" data-paper-data="{&quot;index&quot;:null}"/><path d="M259.52301,122.10212c0,0 -1.91982,8.27701 1.07389,15.6379c2.5683,6.31489 9.89695,11.42749 12.16173,16.05886c2.63886,5.39633 9.41101,15.3495 12.42123,26.61146c3.77746,14.13236 3.54669,29.36784 3.54669,29.36784" data-paper-data="{&quot;index&quot;:null}"/><path d="M255.36402,131.77913c0,0 11.45551,18.62699 16.36022,28.65687c5.95031,12.16806 14.80362,40.68441 14.80362,40.68441" data-paper-data="{&quot;index&quot;:null}"/><path d="M229.28775,101.99695c0,0 -3.28554,23.84468 -5.47216,35.21987c-2.65277,13.80015 -11.20604,32.17137 -11.20604,32.17137"/><path d="M232.68634,110.18212c0,0 -5.55125,21.88025 -7.73787,33.25543c-2.65277,13.80015 -8.94032,34.13581 -8.94032,34.13581"/><path d="M228.90661,110.06396c0,0 0.05584,11.66646 -2.51725,22.0354c-0.97848,3.94306 -4.61818,7.69848 -5.4401,10.55337c-1.53124,5.31865 1.66039,13.48928 -0.30115,19.22358c-2.67481,7.81948 -10.34793,12.54112 -10.34793,12.54112"/><path d="M245.84362,97.19499c0,0 5.55126,21.88025 7.73788,33.25543c2.65277,13.80015 5.63615,44.50369 5.63615,44.50369" data-paper-data="{&quot;index&quot;:null}"/><path d="M268.46578,168.52412c0,0 -7.26581,-26.28717 -10.88509,-38.85851c-2.9833,-10.3623 -7.95735,-32.58877 -7.95735,-32.58877" data-paper-data="{&quot;index&quot;:null}"/><path d="M233.63038,98.50462c0,0 0.01864,34.21256 -2.16798,45.58775c-2.65277,13.80015 -11.20604,32.17137 -11.20604,32.17137"/><path d="M237.02896,106.68976c0,0 -2.24708,32.24813 -4.4337,43.62331c-2.65277,13.80015 -10.32431,29.12989 -10.32431,29.12989"/><path d="M233.24924,106.57164c0,0 3.69926,8.53675 3.12504,16.08663c-0.77888,10.24067 -6.06095,20.90523 -7.77821,26.87001c-1.03987,3.61191 -6.32018,6.16686 -8.09205,9.87455c-4.39516,9.19698 -6.09722,18.61608 -6.09722,18.61608"/><path d="M256.81032,175.28152c0,0 -5.2491,-28.7391 -7.90186,-42.53925c-2.18662,-11.37519 -5.47215,-35.21987 -5.47215,-35.21987" data-paper-data="{&quot;index&quot;:null}"/><path d="M240.03772,105.70757c0,0 5.55126,21.88025 7.73788,33.25543c2.65277,13.80015 5.63615,44.50369 5.63615,44.50369" data-paper-data="{&quot;index&quot;:null}"/><path d="M262.65988,177.0367c0,0 -7.26581,-26.28717 -10.88509,-38.85851c-2.98331,-10.3623 -7.95735,-32.58877 -7.95735,-32.58877" data-paper-data="{&quot;index&quot;:null}"/><path d="M212.96788,172.78672c0,0 6.07084,-27.33566 8.72361,-41.13581c2.18662,-11.37518 7.73788,-33.25543 7.73788,-33.25543"/><path d="M270.20682,174.09002c0,0 -7.26581,-26.28718 -10.88509,-38.85851c-2.9833,-10.3623 -7.95735,-32.58877 -7.95735,-32.58877" data-paper-data="{&quot;index&quot;:null}"/><path d="M231.02146,148.66362c0,0 -3.28554,23.84468 -5.47216,35.21987c-2.65277,13.80015 -11.20604,32.17137 -11.20604,32.17137"/><path d="M234.42004,156.84879c0,0 -5.55125,21.88025 -7.73787,33.25543c-2.65277,13.80015 -8.94032,34.13581 -8.94032,34.13581"/><path d="M230.64032,156.73063c0,0 -4.97404,22.22647 -7.95735,32.58877c-3.61929,12.57133 -10.64908,31.7647 -10.64908,31.7647"/><path d="M264.34992,213.4356c0,0 -5.2491,-28.7391 -7.90186,-42.53925c-2.18662,-11.37519 -5.47215,-35.21987 -5.47215,-35.21987" data-paper-data="{&quot;index&quot;:null}"/><path d="M247.57732,143.86166c0,0 5.55126,21.88025 7.73788,33.25543c2.65277,13.80015 5.63615,44.50369 5.63615,44.50369" data-paper-data="{&quot;index&quot;:null}"/><path d="M270.19949,215.19079c0,0 -7.26581,-26.28717 -10.88509,-38.85851c-2.9833,-10.3623 -7.95735,-32.58877 -7.95735,-32.58877" data-paper-data="{&quot;index&quot;:null}"/><path d="M235.36409,145.17129c0,0 0.01864,34.21256 -2.16798,45.58775c-2.65277,13.80015 -11.20604,32.17137 -11.20604,32.17137"/><path d="M238.76266,153.35643c0,0 -4.43951,15.54158 -5.85487,28.9439c-0.60191,5.69958 2.07361,11.28531 1.42117,14.67941c-0.87401,4.54676 -4.95949,7.59289 -6.46923,11.86876c-3.07256,8.70208 -3.85508,17.26113 -3.85508,17.26113"/><path d="M234.98294,153.23831c0,0 -1.66987,32.59435 -4.65317,42.95664c-3.61929,12.57133 -14.18927,28.49063 -14.18927,28.49063"/><path d="M258.54402,221.94819c0,0 -5.2491,-28.7391 -7.90186,-42.53925c-2.18662,-11.37519 -5.47215,-35.21987 -5.47215,-35.21987" data-paper-data="{&quot;index&quot;:null}"/><path d="M241.77143,152.37424c0,0 6.25149,4.28557 7.48807,9.34499c1.80403,7.38109 -1.04754,17.16142 0.24981,23.91044c0.8216,4.27411 -0.99175,11.50298 -0.20518,17.6056c1.7531,13.60138 5.84133,26.89809 5.84133,26.89809" data-paper-data="{&quot;index&quot;:null}"/><path d="M264.39358,223.70337c0,0 -7.26581,-26.28717 -10.88509,-38.85851c-2.98331,-10.3623 -7.95735,-32.58877 -7.95735,-32.58877" data-paper-data="{&quot;index&quot;:null}"/><path d="M227.7645,136.87697c0,0 -3.28553,23.84468 -5.47215,35.21987c-2.65277,13.80015 -11.20604,32.17137 -11.20604,32.17137"/><path d="M214.70159,219.45338c0,0 6.07084,-27.33566 8.72361,-41.13581c2.18662,-11.37518 7.73788,-33.25543 7.73788,-33.25543"/><path d="M227.52494,145.2714c0,0 -4.97404,22.22647 -7.95735,32.58877c-3.61929,12.57133 -10.64908,32.74692 -10.64908,32.74692"/><path d="M212.44368,198.54161c0,0 -3.16808,-13.06059 -0.60107,-24.16376c1.61833,-6.9998 8.72967,-11.81568 10.2255,-16.52065c1.55319,-4.8854 5.45016,-10.47715 7.67139,-16.29585c2.33903,-6.12726 2.96505,-12.36102 2.96505,-12.36102"/><path d="M271.94052,220.75669c0,0 -0.31269,-13.52437 -3.72572,-25.68658c-1.40504,-5.00679 -6.10392,-9.5059 -7.15937,-13.17193c-0.99312,-3.44955 -6.87352,-7.54719 -8.05093,-12.36865c-2.35948,-9.662 0.09358,-20.22012 0.09358,-20.22012" data-paper-data="{&quot;index&quot;:null}"/><path d="M269.34792,207.21488c0,0 -5.2491,-28.7391 -7.90186,-42.53925c-2.18662,-11.37519 -5.47215,-35.21987 -5.47215,-35.21987" data-paper-data="{&quot;index&quot;:null}"/><path d="M275.1975,208.97006c0,0 -7.26581,-26.28718 -10.88509,-38.85851c-2.9833,-10.3623 -7.95735,-32.58877 -7.95735,-32.58877" data-paper-data="{&quot;index&quot;:null}"/><path d="M253.73778,112.10212c0,0 5.41626,21.66688 8.60501,31.69676c3.86854,12.16806 10.38139,55.9793 10.38139,55.9793" data-paper-data="{&quot;index&quot;:null}"/><path d="M251.36718,121.77913c0,0 1.92716,13.49005 5.49888,23.64276c0.67814,1.92764 4.62874,3.41366 5.13756,5.01411c0.8618,2.71069 4.81726,6.56602 5.78188,10.40334c0.75415,3.00006 -1.63673,6.50944 -1.14552,9.63196c1.70087,10.8121 4.98807,20.64911 4.98807,20.64911" data-paper-data="{&quot;index&quot;:null}"/></g></g></svg>