<svg version="1.1" xmlns="http://www.w3.org/2000/svg" xmlns:xlink="http://www.w3.org/1999/xlink" width="77.66667" height="86.98552" viewBox="0,0,77.66667,86.98552"><g transform="translate(-199.56635,-125.70646)"><g data-paper-data="{&quot;isPaintingLayer&quot;:true}" fill-rule="nonzero" stroke-linecap="butt" stroke-linejoin="miter" stroke-miterlimit="10" stroke-dasharray="" stroke-dashoffset="0" style="mix-blend-mode: normal"><path d="M217.12743,168.11136c0.89611,-30.3297 10.60926,-24.21521 26.47139,-22.11805c15.86213,2.09716 23.60465,0.19157 22.70855,30.52127c-0.89611,30.3297 -12.36458,37.33739 -28.22671,35.24023c-15.86213,-2.09716 -21.84934,-13.31375 -20.95323,-43.64345z" fill="#f22b2b" stroke="none" stroke-width="0"/><path d="M216.72155,167.70547c0.89611,-30.3297 9.92103,-22.70111 25.78316,-20.60395c15.86213,2.09716 24.29288,-1.32253 23.39678,29.00717c-0.89611,30.3297 -12.36458,37.33739 -28.22671,35.24023c-15.86213,-2.09716 -21.84934,-13.31375 -20.95323,-43.64345z" fill="none" stroke="#000000" stroke-width="2"/><path d="M271.6389,152.5632c0,14.22526 -13.80455,25.75711 -30.83334,25.75711c-17.02878,0 -30.83333,-11.53185 -30.83333,-25.75711c0,-8.23023 4.62089,-15.55888 11.81362,-20.27423c1.99469,-1.30767 1.57192,-1.45083 3.91849,-2.32003c1.01249,-0.37504 -0.5616,-0.56822 0.50475,-0.85189c2.95369,-0.78576 10.50519,17.92291 13.77059,17.92291c3.8289,0 10.37857,-15.50265 13.89272,-16.58548c0.22468,-0.06923 -1.20747,-1.86159 -0.99355,-1.78955c1.86263,0.62731 3.08451,1.40217 4.74605,2.30725c8.43706,4.59587 14.01399,12.54939 14.01399,21.59102z" fill="#f22b2b" stroke="#000000" stroke-width="0"/><path d="M239.61627,145.72258l13.11504,-16.45538l6.00749,3.73005l-13.02797,21.9z" data-paper-data="{&quot;index&quot;:null}" fill="#521414" stroke="none" stroke-width="0"/><path d="M235.4241,154.49494l-14.23789,-21.65801l6.00748,-3.48807l13.599,16.45538z" fill="#521414" stroke="none" stroke-width="0"/><path d="M271.23302,152.46362c0,14.22526 -13.80455,25.75711 -30.83334,25.75711c-17.02878,0 -30.83333,-11.53185 -30.83333,-25.75711c0,-14.22526 13.80455,-25.75712 30.83333,-25.75712c17.02878,0 30.83334,11.53186 30.83334,25.75712z" fill="none" stroke="#000000" stroke-width="2"/><path d="M222.89969,138.37313c0,5.89104 -4.99949,10.66667 -11.16667,10.66667c-6.16718,0 -11.16667,-4.77563 -11.16667,-10.66667c0,-5.89104 4.99949,-10.66667 11.16667,-10.66667c6.16718,0 11.16667,4.77563 11.16667,10.66667z" fill="#f22b2b" stroke="#000000" stroke-width="2"/><path d="M276.23302,137.37313c0,5.89103 -4.99949,10.66667 -11.16667,10.66667c-6.16718,0 -11.16667,-4.77563 -11.16667,-10.66667c0,-5.89103 4.99949,-10.66667 11.16667,-10.66667c6.16718,0 11.16667,4.77563 11.16667,10.66667z" fill="#f22b2b" stroke="#000000" stroke-width="2"/><path d="M234.50021,153.88404l5.72774,-9.34643l6.29368,9.44334l-6.32655,11.88748z" fill="#f26060" stroke="none" stroke-width="0"/></g></g></svg>