<svg version="1.1" xmlns="http://www.w3.org/2000/svg" xmlns:xlink="http://www.w3.org/1999/xlink" width="77.66667" height="86.98551" viewBox="0,0,77.66667,86.98551"><g transform="translate(-199.56635,-125.70646)"><g data-paper-data="{&quot;isPaintingLayer&quot;:true}" fill-rule="nonzero" stroke-linecap="butt" stroke-linejoin="miter" stroke-miterlimit="10" stroke-dasharray="" stroke-dashoffset="0" style="mix-blend-mode: normal"><path d="M217.12743,168.11135c0.89611,-30.3297 10.47161,-29.0328 26.33374,-26.93564c15.86213,2.09716 23.7423,5.00916 22.8462,35.33886c-0.89611,30.3297 -12.36458,37.33739 -28.22671,35.24023c-15.86213,-2.09716 -21.84934,-13.31375 -20.95323,-43.64345z" fill="#f22b2b" stroke="none" stroke-width="0"/><path d="M216.72155,167.70546c0.89611,-30.3297 10.47161,-29.0328 26.33374,-26.93564c15.86213,2.09716 23.7423,5.00916 22.8462,35.33886c-0.89611,30.3297 -12.36458,37.33739 -28.22671,35.24023c-15.86213,-2.09716 -21.84934,-13.31375 -20.95323,-43.64345z" fill="none" stroke="#000000" stroke-width="2"/><path d="M271.6389,152.56319c0,14.22526 -13.80455,25.75711 -30.83334,25.75711c-17.02878,0 -30.83333,-11.53185 -30.83333,-25.75711c0,-14.22526 13.80455,-25.75712 30.83333,-25.75712c17.02878,0 30.83334,11.53186 30.83334,25.75712z" fill="#f22b2b" stroke="#000000" stroke-width="0"/><path d="M240.32641,126.38009l25.29779,39.59071c0,0 -6.0972,6.18061 -8.5775,7.61162c-5.66834,3.27036 -12.53994,4.80888 -17.28679,4.51716c-4.22552,-0.25968 -11.18039,-1.1848 -16.43564,-3.89214c-4.86817,-2.50793 -8.26121,-6.99367 -8.26121,-6.99367z" data-paper-data="{&quot;index&quot;:null}" fill="#f26060" stroke="#000000" stroke-width="0"/><path d="M271.23302,152.46361c0,14.22526 -13.80455,25.75711 -30.83334,25.75711c-17.02878,0 -30.83333,-11.53185 -30.83333,-25.75711c0,-14.22526 13.80455,-25.75712 30.83333,-25.75712c17.02878,0 30.83334,11.53186 30.83334,25.75712z" fill="none" stroke="#000000" stroke-width="2"/><path d="M222.89969,138.37313c0,5.89104 -4.99949,10.66667 -11.16667,10.66667c-6.16718,0 -11.16667,-4.77563 -11.16667,-10.66667c0,-5.89104 4.99949,-10.66667 11.16667,-10.66667c6.16718,0 11.16667,4.77563 11.16667,10.66667z" fill="#f22b2b" stroke="#000000" stroke-width="2"/><path d="M276.23302,137.37313c0,5.89103 -4.99949,10.66667 -11.16667,10.66667c-6.16718,0 -11.16667,-4.77563 -11.16667,-10.66667c0,-5.89103 4.99949,-10.66667 11.16667,-10.66667c6.16718,0 11.16667,4.77563 11.16667,10.66667z" fill="#f22b2b" stroke="#000000" stroke-width="2"/></g></g></svg>