<svg version="1.1" xmlns="http://www.w3.org/2000/svg" xmlns:xlink="http://www.w3.org/1999/xlink" width="160.77702" height="241.25373" viewBox="0,0,160.77702,241.25373"><g transform="translate(-159.61149,-59.37314)"><g data-paper-data="{&quot;isPaintingLayer&quot;:true}" fill="#ffffff" fill-rule="nonzero" stroke="#000000" stroke-width="2" stroke-linecap="butt" stroke-linejoin="miter" stroke-miterlimit="10" stroke-dasharray="" stroke-dashoffset="0" style="mix-blend-mode: normal"><path d="M292.20867,215.93842l-10.09717,-37.74234l16.90878,-4.81458l13.15468,35.43909z" data-paper-data="{&quot;index&quot;:null}"/><path d="M307.7123,205.11784c8.34618,2.28177 13.34518,10.59447 11.16559,18.56693c-2.1796,7.97246 -10.71242,12.58569 -19.0586,10.30392c-8.34617,-2.28177 -13.34517,-10.59447 -11.16558,-18.56693c2.1796,-7.97246 10.71241,-12.58569 19.05859,-10.30393z" data-paper-data="{&quot;index&quot;:null}"/><path d="M249.23303,292.03981l-7.5,-92.16666l17.5,-1l11,92.66667z" data-paper-data="{&quot;index&quot;:null}"/><path d="M212.23302,291.0398l11,-92.66667l17,-2l-7,95.16667z"/><path d="M167.82504,213.32059l13.15468,-35.4391l16.90879,4.81459l-10.09717,37.74234z"/><path d="M191.3463,219.92177c2.17959,7.97246 -2.8194,16.28516 -11.16558,18.56692c-8.34618,2.28176 -16.879,-2.33146 -19.0586,-10.30392c-2.17959,-7.97246 2.81941,-16.28517 11.16558,-18.56693c8.34618,-2.28176 16.879,2.33147 19.05859,10.30393z"/><path d="M281.79839,184.56585l-25.40079,-44.80846l17.27006,-7.57697l22.40079,42.14179z" data-paper-data="{&quot;index&quot;:null}"/><path d="M181.06427,177.32222l22.40079,-42.14179l17.27006,7.57697l-25.40079,44.80846z"/><path d="M216.72155,167.70543c0.89611,-30.3297 10.47161,-29.0328 26.33374,-26.93564c15.86213,2.09716 23.7423,5.00916 22.8462,35.33886c-0.89611,30.3297 -12.36458,37.33739 -28.22671,35.24023c-15.86213,-2.09716 -21.84934,-13.31375 -20.95323,-43.64345z"/><path d="M226.01974,123.99445c0.53284,-8.52537 6.22653,-8.16083 15.65833,-7.57134c9.4318,0.58949 14.11744,1.40803 13.58461,9.9334c-0.53284,8.52537 -7.35211,10.49516 -16.78392,9.90567c-9.4318,-0.58949 -12.99186,-3.74236 -12.45902,-12.26773z"/><path d="M272.56636,93.20647c0,18.13335 -14.62537,32.83334 -32.66667,32.83334c-18.0413,0 -32.66666,-14.69998 -32.66666,-32.83334c0,-18.13335 14.62536,-32.83333 32.66666,-32.83333c18.0413,0 32.66667,14.69998 32.66667,32.83333z"/><path d="M271.23302,152.46359c0,14.22526 -13.80455,25.75711 -30.83334,25.75711c-17.02878,0 -30.83333,-11.53185 -30.83333,-25.75711c0,-14.22526 13.80455,-25.75712 30.83333,-25.75712c17.02878,0 30.83334,11.53186 30.83334,25.75712z"/><path d="M222.89969,138.37314c0,5.89104 -4.99949,10.66667 -11.16667,10.66667c-6.16718,0 -11.16667,-4.77563 -11.16667,-10.66667c0,-5.89104 4.99949,-10.66667 11.16667,-10.66667c6.16718,0 11.16667,4.77563 11.16667,10.66667z"/><path d="M276.23302,137.37314c0,5.89103 -4.99949,10.66667 -11.16667,10.66667c-6.16718,0 -11.16667,-4.77563 -11.16667,-10.66667c0,-5.89103 4.99949,-10.66667 11.16667,-10.66667c6.16718,0 11.16667,4.77563 11.16667,10.66667z"/><path d="M198.11432,181.47757c1.55354,5.6825 -2.00957,11.60751 -7.95844,13.23387c-5.94887,1.62636 -12.03078,-1.66179 -13.58432,-7.34429c-1.55354,-5.6825 2.00958,-11.60751 7.95845,-13.23388c5.94887,-1.62636 12.03077,1.66179 13.58432,7.34429z"/><path d="M301.89969,179.03981c0,5.89103 -4.99948,10.66667 -11.16666,10.66667c-6.16718,0 -11.16667,-4.77563 -11.16667,-10.66667c0,-5.89103 4.99949,-10.66667 11.16667,-10.66667c6.16718,0 11.16666,4.77563 11.16666,10.66667z"/><path d="M235.22292,286.60963c0,7.1797 -8.35709,13 -21.75,13c-13.39291,0 -17.75,0.6797 -17.75,-6.5c0,-7.1797 4.35709,-14.5 17.75,-14.5c13.39291,0 21.75,0.8203 21.75,8z"/><path d="M265.97292,278.60964c13.39291,0 17.75,7.3203 17.75,14.5c0,7.1797 -4.35709,6.5 -17.75,6.5c-13.3929,0 -21.75,-5.8203 -21.75,-13c0,-7.1797 8.35709,-8 21.75,-8z" data-paper-data="{&quot;index&quot;:null}"/></g></g></svg>