<svg version="1.1" xmlns="http://www.w3.org/2000/svg" xmlns:xlink="http://www.w3.org/1999/xlink" width="146.92999" height="99.6642" viewBox="0,0,146.92999,99.6642"><g transform="translate(-166.535,-122.08035)"><g data-paper-data="{&quot;isPaintingLayer&quot;:true}" fill-rule="nonzero" stroke="#000000" stroke-width="2" stroke-linecap="butt" stroke-linejoin="miter" stroke-miterlimit="10" stroke-dasharray="" stroke-dashoffset="0" style="mix-blend-mode: normal"><path d="M292.20867,215.93844l-10.09717,-37.74234l16.90878,-4.81458l13.15468,35.43909z" data-paper-data="{&quot;index&quot;:null}" fill="#521414"/><path d="M167.82504,213.32061l13.15468,-35.4391l16.90879,4.81459l-10.09717,37.74234c0,0 -10.38906,-3.70362 -14.07505,-5.01764c-2.38469,-0.85012 -5.89125,-2.10019 -5.89125,-2.10019z" fill="#521414"/><path d="M281.79839,184.56587l-25.40079,-44.80846l17.27006,-7.57697l22.40079,42.14179z" data-paper-data="{&quot;index&quot;:null}" fill="#521414"/><path d="M181.06427,177.32223l22.40079,-42.14179l17.27006,7.57697l-25.40079,44.80846z" fill="#521414"/><path d="M222.89969,138.37313c0,5.89104 -4.99949,10.66667 -11.16667,10.66667c-6.16718,0 -11.16667,-4.77563 -11.16667,-10.66667c0,-5.89104 4.99949,-10.66667 11.16667,-10.66667c6.16718,0 11.16667,4.77563 11.16667,10.66667z" fill="#f22b2b"/><path d="M276.23302,137.37313c0,5.89103 -4.99949,10.66667 -11.16667,10.66667c-6.16718,0 -11.16667,-4.77563 -11.16667,-10.66667c0,-5.89103 4.99949,-10.66667 11.16667,-10.66667c6.16718,0 11.16667,4.77563 11.16667,10.66667z" fill="#f22b2b"/><path d="M198.11432,181.47758c1.55354,5.6825 -2.00957,11.60751 -7.95844,13.23387c-5.94887,1.62636 -12.03078,-1.66179 -13.58432,-7.34429c-1.55354,-5.6825 2.00958,-11.60751 7.95845,-13.23388c5.94887,-1.62636 12.03077,1.66179 13.58432,7.34429z" fill="#521414"/><path d="M301.89969,179.03982c0,5.89103 -4.99948,10.66667 -11.16666,10.66667c-6.16718,0 -11.16667,-4.77563 -11.16667,-10.66667c0,-5.89103 4.99949,-10.66667 11.16667,-10.66667c6.16718,0 11.16666,4.77563 11.16666,10.66667z" fill="#521414"/><path d="M224.43106,136.67263c0,7.50681 -6.37073,13.59228 -14.22942,13.59228c-7.85869,0 -14.22942,-6.08547 -14.22942,-13.59228c0,-7.50681 6.37073,-13.59228 14.22942,-13.59228c7.85869,0 14.22942,6.08547 14.22942,13.59228z" fill="#521414"/><path d="M281.804,137.38478c0,7.50681 -6.37073,13.59228 -14.22942,13.59228c-7.85869,0 -14.22942,-6.08547 -14.22942,-13.59228c0,-7.50681 6.37073,-13.59227 14.22942,-13.59227c7.85869,0 14.22942,6.08546 14.22942,13.59228z" fill="#521414"/></g></g></svg>